<svg width="52" height="52" viewBox="0 0 52 52" fill="none" xmlns="http://www.w3.org/2000/svg">
<path fill-rule="evenodd" clip-rule="evenodd" d="M22.7501 4.33335C24.0067 4.33335 25.2417 4.45902 26.4312 4.70169C26.9944 4.81604 27.489 5.14942 27.8064 5.62848C28.1237 6.10754 28.2377 6.69304 28.1234 7.25619C28.009 7.81933 27.6757 8.31398 27.1966 8.63132C26.7175 8.94867 26.132 9.06271 25.5689 8.94835C22.84 8.39166 20.0072 8.6566 17.4288 9.70969C14.8505 10.7628 12.6422 12.5567 11.0833 14.8647C9.52441 17.1727 8.68484 19.8911 8.67074 22.6762C8.65665 25.4613 9.46867 28.1881 11.0041 30.5117C12.5396 32.8354 14.7296 34.6516 17.2972 35.7307C19.8647 36.8099 22.6947 37.1035 25.4291 36.5744C28.1635 36.0454 30.6797 34.7174 32.6595 32.7585C34.6393 30.7995 35.9938 28.2975 36.5517 25.5689C36.6083 25.29 36.7193 25.0251 36.8784 24.7891C37.0374 24.5532 37.2413 24.3508 37.4785 24.1937C37.7157 24.0366 37.9816 23.9277 38.2608 23.8733C38.5401 23.8189 38.8274 23.8201 39.1062 23.8767C39.3851 23.9333 39.65 24.0443 39.886 24.2033C40.1219 24.3623 40.3242 24.5663 40.4814 24.8035C40.6385 25.0407 40.7474 25.3065 40.8018 25.5858C40.8562 25.8651 40.855 26.1523 40.7984 26.4312C40.2707 29.0152 39.1941 31.4557 37.6416 33.5877L37.2147 34.151L45.1274 42.0637C45.5201 42.4527 45.7493 42.9771 45.768 43.5295C45.7868 44.082 45.5937 44.6207 45.2282 45.0354C44.8628 45.4502 44.3526 45.7095 43.8022 45.7605C43.2518 45.8114 42.7027 45.65 42.2674 45.3094L42.0637 45.1274L34.1511 37.2147C31.8445 39.0324 29.1367 40.2722 26.2536 40.8307C23.3705 41.3891 20.3956 41.2499 17.5772 40.4248C14.7588 39.5997 12.1785 38.1125 10.0517 36.0874C7.92496 34.0623 6.31331 31.5579 5.35125 28.7833C4.38918 26.0086 4.10461 23.0441 4.52126 20.1371C4.93792 17.2301 6.04372 14.4649 7.74641 12.0722C9.4491 9.67942 11.6993 7.72857 14.3093 6.38236C16.9193 5.03614 19.8133 4.3336 22.7501 4.33335ZM41.1667 2.16669C41.5721 2.16669 41.9693 2.28039 42.3132 2.49487C42.6572 2.70936 42.934 3.01603 43.1124 3.38002L43.2164 3.63352L43.4981 4.45252C43.7953 5.32392 44.2743 6.12222 44.9033 6.79456C45.5324 7.46691 46.297 7.99795 47.1467 8.35252L47.5476 8.50419L48.3666 8.78369C48.7721 8.92205 49.1276 9.17759 49.3879 9.51796C49.6483 9.85834 49.8018 10.2683 49.8292 10.6959C49.8566 11.1236 49.7565 11.5498 49.5417 11.9205C49.3268 12.2913 49.0069 12.5901 48.6222 12.779L48.3666 12.883L47.5476 13.1647C46.6762 13.462 45.8779 13.941 45.2055 14.57C44.5332 15.199 44.0021 15.9637 43.6476 16.8134L43.4959 17.2142L43.2164 18.0332C43.0778 18.4387 42.8221 18.7939 42.4815 19.054C42.141 19.3142 41.7311 19.4675 41.3034 19.4946C40.8758 19.5218 40.4497 19.4215 40.079 19.2065C39.7084 18.9915 39.4098 18.6714 39.2211 18.2867L39.1171 18.0332L38.8354 17.2142C38.5381 16.3428 38.0591 15.5445 37.4301 14.8721C36.8011 14.1998 36.0364 13.6688 35.1867 13.3142L34.7859 13.1625L33.9669 12.883C33.5613 12.7447 33.2059 12.4891 32.9455 12.1487C32.6852 11.8084 32.5316 11.3984 32.5042 10.9708C32.4769 10.5431 32.5769 10.1169 32.7918 9.74616C33.0066 9.37537 33.3266 9.07662 33.7112 8.88769L33.9669 8.78369L34.7859 8.50202C35.6573 8.20475 36.4556 7.72575 37.1279 7.09674C37.8003 6.46772 38.3313 5.70305 38.6859 4.85335L38.8376 4.45252L39.1171 3.63352C39.263 3.20579 39.5391 2.83442 39.9067 2.5714C40.2742 2.30837 40.7148 2.16687 41.1667 2.16669ZM41.1667 9.09135C40.6542 9.73637 40.0697 10.3208 39.4247 10.8334C40.0718 11.3461 40.6525 11.9268 41.1667 12.5754C41.6795 11.9282 42.2602 11.3476 42.9087 10.8334C42.2637 10.3208 41.6793 9.73637 41.1667 9.09135Z" fill="black"/>
</svg>
