<svg width="52" height="52" viewBox="0 0 52 52" fill="none" xmlns="http://www.w3.org/2000/svg">
<path d="M25.9999 12.6425L25.4913 12.7969L5.1788 19.6024L0.560547 21.125L3.24992 21.9863V36.205C2.2798 36.7689 1.62492 37.7975 1.62492 39C1.62492 39.862 1.96733 40.6886 2.57682 41.2981C3.18632 41.9076 4.01297 42.25 4.87492 42.25C5.73688 42.25 6.56353 41.9076 7.17302 41.2981C7.78251 40.6886 8.12492 39.862 8.12492 39C8.12492 37.7975 7.47005 36.7689 6.49992 36.205V23.1075L9.74992 24.1719V32.5C9.74992 33.8325 10.5624 34.9375 11.5277 35.7013C12.4929 36.4601 13.6922 36.9964 15.1319 37.4774C18.0147 38.4361 21.8139 39 25.9999 39C30.1859 39 33.9852 38.4378 36.8679 37.4758C38.3077 36.9964 39.5069 36.4601 40.4722 35.6996C41.4374 34.9375 42.2499 33.8325 42.2499 32.5V24.1719L46.821 22.6476L51.4393 21.125L46.8194 19.6008L26.5069 12.7969L25.9999 12.6425ZM25.9999 16.0469L41.2343 21.125L25.9999 26.2031L10.7655 21.125L25.9999 16.0469ZM12.9999 25.2899L25.4929 29.4531L25.9999 29.6059L26.5085 29.4515L38.9999 25.2883V32.5C38.9999 32.5163 39.0064 32.7048 38.4913 33.1094C37.9778 33.5156 37.0564 34.0275 35.8507 34.4305C33.4424 35.2316 29.8918 35.75 25.9999 35.75C22.108 35.75 18.5574 35.2333 16.1475 34.4289C14.945 34.0275 14.022 33.514 13.5085 33.1094C12.9918 32.7031 12.9999 32.5163 12.9999 32.5V25.2899Z" fill="black"/>
</svg>
