<svg width="52" height="52" viewBox="0 0 52 52" fill="none" xmlns="http://www.w3.org/2000/svg">
<path d="M25.8836 13L20.7659 37.0196C20.3586 38.9306 20.5817 39.6456 21.9857 41.0193L27.6624 46.5681C28.4121 47.3005 28.7847 47.6666 29.2506 47.6666C29.7164 47.6666 30.0891 47.3005 30.8387 46.5681L36.5154 41.0193C37.9194 39.6456 38.1426 38.9306 37.7352 37.0196L32.6176 13M22.8741 6.76865C22.7267 5.63331 22.6552 5.06565 22.9867 4.69948C23.3204 4.33331 23.9097 4.33331 25.0884 4.33331H33.4149C34.5914 4.33331 35.1807 4.33331 35.5144 4.70165C35.8459 5.06565 35.7744 5.63331 35.6271 6.76865L35.5187 7.62448C35.2089 10.0251 35.0551 11.2255 34.2837 12.0033C34.1566 12.1319 34.0208 12.2481 33.8764 12.3521C32.9859 13 31.7401 13 29.2506 13C26.7589 13 25.5152 13 24.6247 12.3521C24.4804 12.2479 24.3449 12.1319 24.2196 12.0055C23.4461 11.2255 23.2922 10.0251 22.9846 7.62448L22.8741 6.76865Z" stroke="black" stroke-width="3" stroke-linecap="round" stroke-linejoin="round"/>
<path d="M21.6669 32.5C20.3495 34.0015 19.2359 34.6667 18.4169 34.6667C17.3682 34.6667 15.4789 32.0233 14.6404 30.1058C14.246 29.2088 14.0489 28.7582 14.0879 28.1905C14.1269 27.6207 14.3847 27.2068 14.9004 26.3748C17.8145 21.6732 22.7827 17.3767 26.0002 13" stroke="black" stroke-width="3" stroke-linecap="round" stroke-linejoin="round"/>
</svg>
