<svg width="32" height="32" viewBox="0 0 32 32" fill="none" xmlns="http://www.w3.org/2000/svg">
<path fill-rule="evenodd" clip-rule="evenodd" d="M10 10C10 8.4087 10.6321 6.88258 11.7574 5.75736C12.8826 4.63214 14.4087 4 16 4C17.5913 4 19.1174 4.63214 20.2426 5.75736C21.3679 6.88258 22 8.4087 22 10C22 11.5913 21.3679 13.1174 20.2426 14.2426C19.1174 15.3679 17.5913 16 16 16C14.4087 16 12.8826 15.3679 11.7574 14.2426C10.6321 13.1174 10 11.5913 10 10ZM6 28V27C6 24.6131 6.94821 22.3239 8.63604 20.636C10.3239 18.9482 12.6131 18 15 18H17C19.3869 18 21.6761 18.9482 23.364 20.636C25.0518 22.3239 26 24.6131 26 27V28H6Z" fill="#252528"/>
</svg>
